PathFileType	3	(X/Y/Z)	D:\minhoCalibration\240510\subject1_KPNP\preferred\preferred10.trc
DataRate	CameraRate	NumFrames	NumMarkers	Units	OrigDataRate	OrigDataStartFrame	OrigNumFrames
200.0	200.0	30	10	mm	200.0	547	162	
Frame#	Time	Left_Ankle_Outer1			Left_Ankle_Inner1			Left_Knee_Outer1			Left_Knee_Inner1			Left_Wrist1			Right_Wrist1			Right_Knee_Inner1			Right_Knee_Outer1			Right_Ankle_Inner1			Right_Ankle_Outer1			
		X1	Y1	Z1	X2	Y2	Z2	X3	Y3	Z3	X4	Y4	Z4	X5	Y5	Z5	X6	Y6	Z6	X7	Y7	Z7	X8	Y8	Z8	X9	Y9	Z9	X10	Y10	Z10	
547	2.725	-504.90045	144.2673	-522.2641	-541.09277	156.38206	-478.68417	-338.80911	563.65845	-457.91708	-426.11566	550.37769	-393.12628	-432.27835	986.41577	-703.11877	-572.32104	1188.2793	-442.85938	-300.92273	1013.0884	-119.47117	-338.88226	1109.5704	-119.88062	-302.07898	1032.7535	338.3988	-278.65097	1141.4211	342.72232
548	2.73	-505.64062	143.34863	-522.59076	-542.10571	155.36435	-479.24524	-339.45804	562.59186	-455.62442	-428.09442	549.30615	-390.91696	-430.0195	986.88928	-698.92755	-575.33484	1187.3256	-441.30615	-307.16348	1016.1813	-115.67789	-348.39572	1113.969	-114.04435	-282.91153	1041.683	333.1908	-253.56909	1149.6401	333.02264
549	2.735	-506.33752	142.60573	-522.87598	-543.2926	154.64658	-479.56339	-339.7345	561.53516	-453.21783	-428.88763	548.23212	-389.30444	-427.39948	987.62195	-694.03558	-578.62097	1186.8102	-438.47516	-310.97775	1018.2908	-112.61782	-356.14044	1120.2147	-107.78336	-280.51038	1046.4471	336.73645	-246.12593	1152.7279	333.83456
550	2.74	-507.00986	141.92033	-523.03491	-544.04785	154.00105	-479.8121	-339.84311	560.51123	-450.5025	-430.07812	546.68475	-386.9675	-424.46054	988.4585	-688.38733	-581.59344	1186.2297	-435.65628	-309.56125	1019.9505	-110.36643	-360.9837	1127.0717	-103.30487	-282.50055	1050.3062	341.85919	-247.02354	1154.4995	337.60034
551	2.745	-507.15631	141.70874	-523.16187	-544.52197	153.64105	-480.05255	-339.99304	559.54163	-447.31799	-429.6767	545.05096	-384.94211	-421.38672	989.19269	-682.2074	-584.62347	1186.3713	-432.26883	-303.73331	1024.604	-107.74377	-360.73813	1132.4058	-101.01271	-284.13754	1048.9725	342.31888	-250.9413	1154.0525	341.40231
552	2.75	-506.74219	141.90128	-522.91071	-544.2597	153.50771	-480.22626	-340.0499	558.95746	-443.71106	-430.15884	543.86932	-381.08337	-418.20587	989.6759	-675.8399	-587.84888	1186.907	-429.01901	-300.63556	1031.057	-104.22691	-355.6311	1135.7494	-100.56461	-283.07404	1042.9872	340.96643	-256.90506	1149.3082	346.15961
553	2.755	-505.81366	142.25323	-522.13477	-543.79639	153.65219	-480.19733	-340.30038	558.68219	-439.38223	-429.58548	542.70728	-378.24246	-415.18448	989.91827	-669.53143	-591.578	1187.5403	-426.28183	-298.20312	1036.7998	-104.9454	-349.39322	1136.7111	-100.72748	-284.66104	1037.6135	338.78168	-267.62155	1141.1375	351.41013
554	2.76	-503.99673	143.13136	-521.8327	-542.85455	153.933	-480.10107	-340.77893	559.0993	-434.41632	-430.21664	542.39612	-372.87347	-412.29095	989.98419	-663.63531	-595.68109	1187.8716	-424.11105	-297.94043	1040.2382	-107.35701	-345.01395	1136.0801	-101.59	-288.50519	1032.7144	335.22995	-280.30725	1135.7533	355.64355
555	2.765	-502.20239	143.7153	-520.75739	-541.64423	154.39638	-480.04776	-341.46945	560.01855	-428.82947	-429.76953	541.7417	-370.95447	-409.58911	990.07886	-658.11639	-600.35535	1188.389	-420.88361	-298.90524	1041.6334	-108.99718	-345.44879	1135.8092	-101.94978	-293.4147	1026.2007	331.978	-290.1218	1129.8876	359.51428
556	2.77	-499.85504	144.71136	-520.34851	-540.12653	154.85747	-480.22269	-342.15152	561.36951	-422.90509	-431.74634	542.66754	-365.59839	-406.99762	990.3175	-652.89276	-604.24487	1188.0035	-419.8382	-300.15771	1042.562	-109.62782	-347.95135	1136.0615	-101.5407	-299.66785	1019.2398	332.57443	-297.64597	1122.6476	362.54639
557	2.775	-497.62601	145.67291	-519.47253	-538.8598	155.47508	-480.2121	-343.13065	562.59686	-416.92117	-434.02576	543.4682	-361.89182	-404.64291	990.75238	-647.81158	-607.97998	1187.3663	-418.72574	-301.4342	1043.4259	-109.71761	-348.19763	1136.4703	-101.21715	-307.83624	1012.2323	333.51028	-305.03922	1113.9202	364.11636
558	2.78	-495.52548	146.47595	-518.58685	-537.37531	156.06979	-480.15204	-343.97308	563.83759	-410.89609	-437.24847	544.47021	-358.08685	-402.64624	991.271	-642.81683	-611.66144	1186.4905	-417.83395	-301.69464	1044.5259	-110.31346	-349.30249	1136.9059	-100.0678	-313.72427	1001.8886	334.74927	-312.24841	1104.7969	364.78012
559	2.785	-493.48502	147.47842	-517.56464	-536.0733	156.6582	-480.02161	-345.19724	564.7984	-404.96579	-440.32379	545.33203	-355.13751	-400.90585	991.8913	-637.72046	-615.5495	1185.3341	-416.92126	-300.53275	1045.8431	-111.60851	-352.91351	1135.9536	-99.237129	-319.77673	990.73364	335.39438	-319.38925	1093.9517	364.71286
560	2.79	-491.51468	148.53935	-516.51465	-534.60889	157.47255	-479.82462	-346.62888	565.69629	-399.22141	-443.48944	546.24255	-352.3262	-399.23438	992.41705	-632.46307	-619.82758	1184.0597	-415.94492	-299.2641	1047.5424	-113.4659	-357.96558	1134.1969	-97.782341	-329.46692	980.13873	334.13773	-326.13403	1081.8793	363.89828
561	2.795	-489.76926	149.41333	-515.37018	-533.62482	157.92137	-479.26712	-348.10065	566.63208	-393.90509	-446.34671	547.0094	-349.89392	-397.56833	992.98846	-627.1145	-624.38409	1182.6094	-414.93921	-298.46851	1049.2168	-115.74033	-363.13013	1131.9734	-95.488586	-328.82208	964.57904	333.26871	-333.89648	1068.5123	363.58871
562	2.8	-488.3602	150.39258	-514.16302	-532.68958	158.26196	-478.66318	-349.92587	567.51312	-388.90607	-448.5856	547.18616	-348.79456	-395.6377	993.67987	-621.92719	-629.00653	1180.7803	-413.76685	-298.11972	1050.3069	-117.00863	-368.3074	1128.9888	-92.857597	-336.47482	953.01715	330.68011	-343.56421	1053.8417	364.43124
563	2.805	-487.18835	151.18102	-512.82672	-532.17682	159.04774	-478.2243	-351.76044	568.46448	-384.49457	-451.42413	548.30359	-345.27985	-393.99698	994.65564	-616.4892	-633.78021	1178.6932	-412.52789	-298.24377	1049.8081	-115.84194	-373.58743	1125.1401	-90.016014	-340.36154	937.88458	327.37665	-354.20306	1037.8389	365.77386
564	2.81	-486.5188	151.627	-511.18732	-531.5929	159.58939	-477.29028	-353.74258	569.30371	-380.42276	-453.58572	548.19055	-344.11697	-391.504	995.9256	-612.34021	-638.45477	1176.2412	-411.45392	-298.98053	1047.7172	-113.48989	-378.90601	1120.752	-86.875229	-342.90076	921.3576	323.20654	-364.76202	1020.5089	366.31186
565	2.815	-485.92188	152.53792	-510.43225	-531.80688	160.08562	-477.13159	-355.7193	570.05597	-376.84995	-456.14511	548.90314	-341.59439	-389.29691	997.49048	-608.04877	-643.34967	1173.6915	-410.05026	-300.61154	1044.381	-111.20441	-383.82382	1115.9188	-83.452492	-347.33771	908.51044	321.85577	-374.53528	1002.47	365.71844
566	2.82	-485.80487	153.13667	-509.35703	-531.69354	160.07838	-476.31375	-357.32629	570.74231	-373.85648	-458.23318	549.79999	-339.7262	-387.49655	999.05615	-603.5722	-647.96436	1170.8564	-409.17593	-302.7103	1040.0902	-109.23709	-387.82306	1110.7765	-80.003304	-351.01224	890.4837	317.6499	-383.76385	983.93719	363.9982
567	2.825	-485.86636	153.49992	-508.51791	-532.09875	160.18997	-475.72644	-359.26526	571.25739	-371.27356	-460.68094	549.73163	-338.91611	-385.07413	1000.8561	-599.93219	-652.08038	1167.8668	-409.01364	-305.68228	1034.6957	-107.46999	-390.61447	1105.5	-76.867973	-360.24713	874.42712	311.42755	-392.50623	964.94818	361.79642
568	2.83	-486.11261	153.80531	-507.94345	-532.57935	160.82951	-475.34103	-360.96567	571.6532	-369.15051	-462.43127	549.86774	-338.85764	-383.5686	1002.5468	-595.53955	-655.8269	1164.745	-408.93979	-309.41986	1028.6287	-105.9074	-392.76642	1100.2097	-73.978676	-364.97781	856.69513	306.9614	-400.6214	945.55048	358.67233
569	2.835	-486.51862	154.03171	-507.46649	-532.8493	160.38725	-475.46097	-362.89066	571.35608	-366.99844	-464.47153	550.00458	-338.37808	-381.81848	1004.1725	-591.7428	-658.96716	1161.8595	-409.37711	-313.72488	1022.4254	-104.38172	-395.06284	1094.8856	-71.25721	-370.81866	839.26276	302.04736	-408.74515	925.974	355.08246
570	2.84	-486.95108	154.13528	-507.25079	-533.48773	160.65414	-475.20557	-364.56561	571.48016	-365.62552	-466.36038	549.98743	-338.20541	-380.18762	1005.8377	-588.06989	-661.65302	1159.0891	-409.9184	-318.36264	1016.523	-103.00294	-398.24826	1089.379	-68.709541	-377.46539	821.38257	296.55838	-417.71201	906.21075	351.65381
571	2.845	-487.31738	154.1839	-507.15488	-533.73694	160.70247	-475.22226	-365.69843	571.48096	-364.64655	-468.08878	549.89655	-338.14893	-378.56061	1007.3339	-584.65131	-664.16101	1156.7493	-410.62747	-323.07224	1011.0692	-101.80634	-402.5589	1083.4563	-66.425392	-385.21713	803.31323	290.59412	-426.49353	885.66565	347.59119
572	2.85	-487.638	154.07777	-507.25742	-534.63922	160.3679	-476.22247	-366.93481	571.36035	-363.89499	-469.60086	549.61255	-338.30753	-377.13943	1008.7551	-581.38824	-666.43408	1154.3777	-411.60089	-327.90714	1005.897	-100.77979	-407.89618	1077.1112	-64.456055	-392.62595	786.21472	283.43805	-435.83658	865.06439	343.11081
573	2.855	-487.96362	153.78882	-507.491	-535.04254	160.07211	-476.70502	-368.43155	571.08331	-363.36099	-471.31323	549.15137	-338.30627	-375.76938	1010.0984	-578.29865	-669.14886	1152.1001	-412.36041	-332.9733	1000.864	-99.913528	-413.96164	1070.3177	-62.715435	-399.30896	768.27539	276.81116	-445.29599	844.08112	338.06442
574	2.86	-488.16293	153.39334	-507.931	-535.37836	159.65038	-477.34863	-369.61554	570.72906	-363.14603	-472.37265	549.04907	-338.98718	-374.60059	1011.3237	-575.38342	-671.27966	1149.292	-413.88614	-337.87576	996.01709	-99.302536	-420.64401	1063.142	-60.977055	-406.7175	749.73895	269.17859	-454.64636	822.55469	332.00253
575	2.865	-488.27856	152.94328	-508.42984	-535.63287	159.0817	-478.18811	-370.59628	570.43103	-363.08167	-474.30298	548.82928	-338.53244	-373.41275	1012.4737	-572.70917	-673.7124	1147.4003	-414.66718	-342.76306	991.11462	-98.707642	-427.75153	1055.6172	-59.23175	-413.57529	732.23956	260.99228	-464.59515	801.15106	325.66708
576	2.87	-488.31238	152.41858	-508.93796	-535.72888	158.47241	-478.95663	-371.83673	569.96466	-363.15973	-475.16608	547.92682	-340.07681	-372.48627	1013.4692	-570.159	-676.02374	1145.228	-415.75031	-347.83945	986.22174	-97.873955	-435.12238	1047.6038	-57.647434	-421.64383	713.56433	252.53362	-474.52518	779.57056	318.51477
